<?xml version="1.0" encoding="UTF-8"?>
<!-- Created with EazyDraw for Mac ( https://www.eazydraw.com/ ) -->

<svg
    version="1.1"
    xmlns:dc="http://purl.org/dc/elements/1.1/"
    xmlns:cc="http://creativecommons.org/ns#"
    xmlns:rdf="http://www.w3.org/1999/02/22-rdf-syntax-ns#"
    xmlns:svg="http://www.w3.org/2000/svg"
    xmlns:xlink="http://www.w3.org/1999/xlink"
    xmlns="http://www.w3.org/2000/svg"
    width="285.875015259"
    height="332.283935547"
    viewBox="0, 0, 285.875015259, 332.283935547"
    preserveAspectRatio="none"
    id="svg2">
   <defs
       id="defs_B8EF757A"/>
   <metadata
       id="metadata7">
      <rdf:RDF>
         <cc:Work
             rdf:about="">
            <dc:format>image/svg+xml</dc:format>
            <dc:type rdf:resource="http://purl.org/dc/dcmitype/StillImage"/>
            <dc:title></dc:title>
         </cc:Work>
      </rdf:RDF>
   </metadata>
   <g
       id="layer_Paper"
       style="fill:#000000;fill-opacity:1;stroke:#000000;stroke-opacity:1;fill-rule:nonzero;stroke-linecap:square;stroke-linejoin:miter;stroke-width:1;stroke-miterlimit:10">
      <path
          style="fill:#316CE6;stroke:none"
          id="338C3F4A"
          d="M0,184.532501221 C93.4630584717,206.933013916 194.629333496,207.335510254 285.875015259,184.532501221 C272.196285342,220.036519368 249.145729253,246.397440592 207.123310371,255.386322021 C164.33277521,255.386322021 121.542240049,255.386322021 78.7517048874,255.386322021
C40.3865125682,244.568735758 12.5358160985,222.093800863 0,184.532501221"/>
      <path
          style="fill:#316CE6;stroke:none"
          id="BD9FE95A"
          d="M104.061798096,0 C130.931757609,53.3977152507 169.687703451,88.9665425618 218.958175659,103.27746582 C169.001637777,128.788798014 130.183222453,158.454610189 104.061798096,206.554931641 C104.061798096,137.70328776 104.061798096,68.8516438802 104.061798096,0"/>
      <g
          id="0BEF757A">
         <path
             style="fill:#316CE6;stroke:none"
             id="D9EF757A"
             d="M98.9026534424,284.903940983 C95.4182610205,283.574417207 93.0589096143,282.178438183 91.8245284424,280.715962029 C90.5901472705,279.253485876 89.9729659424,277.286602264 89.9729659424,274.815252187 C89.9729659424,271.640036582 90.9885807861,269.145261742 93.0198409424,267.330852825
C95.0511010986,265.516443907 97.840135708,264.609253056 101.387028442,264.609253056 C102.996411489,264.609253056 104.605770396,264.79303741 106.215153442,265.16061163 C107.824536489,265.528185851 109.418270552,266.0717183 110.996403442,266.791225284
C110.996403442,269.043583713 110.996403442,271.295942142 110.996403442,273.548300571 C109.512021021,272.500323007 108.004223599,271.702620707 106.472965942,271.15516974 C104.941708286,270.607718774 103.426098442,270.333997396 101.926090942,270.333997396
C100.254207583,270.333997396 98.9729703955,270.67028366 98.0823409424,271.342866276 C97.1917114893,272.015448892 96.7464034424,272.977384018 96.7464034424,274.228700513 C96.7464034424,275.198470796 97.0706189502,276.000083402 97.7190596924,276.633562377
C98.3675004346,277.267041353 99.7229556299,277.966986018 101.785465942,278.733417371 C102.777653442,279.108810442 103.769840942,279.484203514 104.762028442,279.859596585 C107.574542505,280.891932693 109.644834302,282.26053958 110.972965942,283.965458304
C112.301097583,285.670377029 112.965153442,287.821044994 112.965153442,290.41752672 C112.965153442,293.952495818 111.922195122,296.591951957 109.836247192,298.335974322 C107.750299263,300.079996686 104.597987036,300.951994789 100.379215942,300.951994789
C98.6448322705,300.951994789 96.9065684033,300.744748603 95.1643721924,300.330250014 C93.4221759814,299.915751425 91.7385990674,299.301833479 90.1135909424,298.488477757 C90.1135909424,296.103167615 90.1135909424,293.717857474 90.1135909424,291.332547332
C91.9573501611,292.646429652 93.7424885596,293.624005999 95.4690596924,294.265305703 C97.1956308252,294.906605407 98.9026450049,295.227250449 100.590153442,295.227250449 C102.293286958,295.227250449 103.613586255,294.840130215 104.551090942,294.065878134
C105.48859563,293.291626053 105.957340942,292.208471459 105.957340942,290.816381859 C105.957340942,289.768404294 105.644844067,288.849482528 105.019840942,288.05958899 C104.394837817,287.269695453 103.48859688,286.647956896 102.301090942,286.194354666
z"/>
         <path
             style="fill:#316CE6;stroke:none"
             id="1AEF757A"
             d="M130.410465942,271.577486946 C129.324528442,276.355927918 128.238590942,281.13436889 127.152653442,285.912809863 C129.332340942,285.912809863 131.512028442,285.912809863 133.691715942,285.912809863 z M126.191715942,265.242728865
C129.012028442,265.242728865 131.832340942,265.242728865 134.652653442,265.242728865 C137.801090942,276.919017525 140.949528442,288.595306186 144.097965942,300.271594847 C141.793278442,300.271594847 139.488590942,300.271594847 137.183903442,300.271594847
C136.465153442,297.38576061 135.746403442,294.499926373 135.027653442,291.614092136 C131.941715942,291.614092136 128.855778442,291.614092136 125.769840942,291.614092136 C125.066715942,294.499926373 124.363590942,297.38576061 123.660465942,300.271594847
C121.355778442,300.271594847 119.051090942,300.271594847 116.746403442,300.271594847 z"/>
         <path
             style="fill:#316CE6;stroke:none"
             id="4AEF757A"
             d="M149.027653442,271.342866276 C149.027653442,269.309487139 149.027653442,267.276108002 149.027653442,265.242728865 C155.972965942,265.242728865 162.918278442,265.242728865 169.863590942,265.242728865 C169.863590942,267.276108002 169.863590942,269.309487139 169.863590942,271.342866276
C167.543278442,271.342866276 165.222965942,271.342866276 162.902653442,271.342866276 C162.902653442,278.952396662 162.902653442,286.561927049 162.902653442,294.171457435 C165.222965942,294.171457435 167.543278442,294.171457435 169.863590942,294.171457435
C169.863590942,296.204836572 169.863590942,298.238215709 169.863590942,300.271594847 C162.918278442,300.271594847 155.972965942,300.271594847 149.027653442,300.271594847 C149.027653442,298.238215709 149.027653442,296.204836572 149.027653442,294.171457435
C151.347965942,294.171457435 153.668278442,294.171457435 155.988590942,294.171457435 C155.988590942,286.561927049 155.988590942,278.952396662 155.988590942,271.342866276 z"/>
         <path
             style="fill:#316CE6;stroke:none"
             id="6AEF757A"
             d="M179.293278442,300.271594847 C179.293278442,288.595306186 179.293278442,276.919017525 179.293278442,265.242728865 C181.597965942,265.242728865 183.902653442,265.242728865 186.207340942,265.242728865 C186.207340942,274.885638388 186.207340942,284.528547912 186.207340942,294.171457435
C191.137028442,294.171457435 196.066715942,294.171457435 200.996403442,294.171457435 C200.996403442,296.204836572 200.996403442,298.238215709 200.996403442,300.271594847 z"/>
      </g>
   </g>
</svg>
